{
	"asset":{
		"generator":"Khronos glTF Blender I/O v3.5.30",
		"version":"2.0"
	},
	"extensionsUsed":[
		"KHR_materials_transmission",
		"KHR_materials_ior"
	],
	"scene":0,
	"scenes":[
		{
			"name":"Scene",
			"nodes":[
				0,
				1
			]
		}
	],
	"nodes":[
		{
			"name":"Empty",
			"translation":[
				0.21876287460327148,
				-0.0054253339767456055,
				0.0022639036178588867
			]
		},
		{
			"mesh":0,
			"name":"Plane",
			"rotation":[
				0.7071068286895752,
				0,
				0,
				0.7071068286895752
			],
			"translation":[
				-1.3847893476486206,
				0,
				1.4176042079925537
			]
		}
	],
	"materials":[
		{
			"doubleSided":true,
			"emissiveFactor":[
				1,
				1,
				1
			],
			"emissiveTexture":{
				"index":0,
				"texCoord":1
			},
			"extensions":{
				"KHR_materials_transmission":{
					"transmissionFactor":1,
					"transmissionTexture":{
						"index":1,
						"texCoord":1
					}
				},
				"KHR_materials_ior":{
					"ior":1.4500000476837158
				}
			},
			"name":"Material",
			"normalTexture":{
				"index":2,
				"texCoord":1
			},
			"pbrMetallicRoughness":{
				"baseColorTexture":{
					"index":3,
					"texCoord":1
				},
				"metallicRoughnessTexture":{
					"index":4,
					"texCoord":1
				}
			}
		}
	],
	"meshes":[
		{
			"name":"Plane",
			"primitives":[
				{
					"attributes":{
						"POSITION":0,
						"TEXCOORD_0":1,
						"TEXCOORD_1":2,
						"NORMAL":3
					},
					"indices":4,
					"material":0
				}
			]
		}
	],
	"textures":[
		{
			"sampler":0,
			"source":0
		},
		{
			"sampler":0,
			"source":1
		},
		{
			"sampler":0,
			"source":2
		},
		{
			"sampler":0,
			"source":3
		},
		{
			"sampler":0,
			"source":4
		}
	],
	"images":[
		{
			"mimeType":"image/png",
			"name":"DefaultMaterial_glow",
			"uri":"DefaultMaterial_glow.png"
		},
		{
			"mimeType":"image/png",
			"name":"DefaultMaterial_opacity",
			"uri":"DefaultMaterial_opacity.png"
		},
		{
			"mimeType":"image/png",
			"name":"DefaultMaterial_normal",
			"uri":"DefaultMaterial_normal.png"
		},
		{
			"mimeType":"image/png",
			"name":"DefaultMaterial_baseColor",
			"uri":"DefaultMaterial_baseColor.png"
		},
		{
			"mimeType":"image/png",
			"name":"DefaultMaterial_metallic-DefaultMaterial_roughness",
			"uri":"DefaultMaterial_metallic-DefaultMaterial_roughness.png"
		}
	],
	"accessors":[
		{
			"bufferView":0,
			"componentType":5126,
			"count":48,
			"max":[
				4.102165699005127,
				0,
				1
			],
			"min":[
				-0.8906123638153076,
				-0.30000001192092896,
				-3.818786859512329
			],
			"type":"VEC3"
		},
		{
			"bufferView":1,
			"componentType":5126,
			"count":48,
			"type":"VEC2"
		},
		{
			"bufferView":2,
			"componentType":5126,
			"count":48,
			"type":"VEC2"
		},
		{
			"bufferView":3,
			"componentType":5126,
			"count":48,
			"type":"VEC3"
		},
		{
			"bufferView":4,
			"componentType":5123,
			"count":72,
			"type":"SCALAR"
		}
	],
	"bufferViews":[
		{
			"buffer":0,
			"byteLength":576,
			"byteOffset":0,
			"target":34962
		},
		{
			"buffer":0,
			"byteLength":384,
			"byteOffset":576,
			"target":34962
		},
		{
			"buffer":0,
			"byteLength":384,
			"byteOffset":960,
			"target":34962
		},
		{
			"buffer":0,
			"byteLength":576,
			"byteOffset":1344,
			"target":34962
		},
		{
			"buffer":0,
			"byteLength":144,
			"byteOffset":1920,
			"target":34963
		}
	],
	"samplers":[
		{
			"magFilter":9729,
			"minFilter":9987
		}
	],
	"buffers":[
		{
			"byteLength":2064,
			"uri":"LOGO.bin"
		}
	]
}
